<?xml version="1.0" encoding="UTF-8" standalone="no"?>
<!-- Created with Inkscape (http://www.inkscape.org/) -->

<svg
   xmlns:dc="http://purl.org/dc/elements/1.1/"
   xmlns:cc="http://creativecommons.org/ns#"
   xmlns:rdf="http://www.w3.org/1999/02/22-rdf-syntax-ns#"
   xmlns:svg="http://www.w3.org/2000/svg"
   xmlns="http://www.w3.org/2000/svg"
   xmlns:sodipodi="http://sodipodi.sourceforge.net/DTD/sodipodi-0.dtd"
   xmlns:inkscape="http://www.inkscape.org/namespaces/inkscape"
   width="40"
   height="45.570656"
   viewBox="0 0 40.000001 45.570655"
   id="svg2"
   version="1.1"
   inkscape:version="0.91 r13725"
   sodipodi:docname="viewIcon.svg"
   inkscape:export-filename="/Users/JochiGold/github/bloc/blocTime/viewIcon.png"
   inkscape:export-xdpi="90"
   inkscape:export-ydpi="90">
  <defs
     id="defs4" />
  <sodipodi:namedview
     id="base"
     pagecolor="#ffffff"
     bordercolor="#666666"
     borderopacity="1.0"
     inkscape:pageopacity="0.0"
     inkscape:pageshadow="2"
     inkscape:zoom="10.349648"
     inkscape:cx="-1.5708277"
     inkscape:cy="20.052457"
     inkscape:document-units="px"
     inkscape:current-layer="layer4"
     showgrid="false"
     units="px"
     inkscape:object-paths="true"
     inkscape:snap-intersection-paths="true"
     inkscape:snap-bbox="true"
     inkscape:bbox-paths="true"
     inkscape:window-width="1395"
     inkscape:window-height="855"
     inkscape:window-x="71"
     inkscape:window-y="17"
     inkscape:window-maximized="0"
     fit-margin-top="0"
     fit-margin-left="0"
     fit-margin-right="0"
     fit-margin-bottom="0" />
  <metadata
     id="metadata7">
    <rdf:RDF>
      <cc:Work
         rdf:about="">
        <dc:format>image/svg+xml</dc:format>
        <dc:type
           rdf:resource="http://purl.org/dc/dcmitype/StillImage" />
        <dc:title />
      </cc:Work>
    </rdf:RDF>
  </metadata>
  <g
     inkscape:groupmode="layer"
     id="layer4"
     inkscape:label="icon"
     sodipodi:insensitive="true">
    <g
       inkscape:groupmode="layer"
       id="layer1"
       inkscape:label="arrow"
       sodipodi:insensitive="true">
      <path
         transform="matrix(1.5740606,0,0,1.5740606,-29.02624,-479.58883)"
         sodipodi:nodetypes="cccccczzccccccc"
         inkscape:connector-curvature="0"
         id="path4552"
         d="m 39.123893,318.0218 c 1.039946,0 1.050336,-0.0441 1.050336,-0.96765 -0.0095,-0.55465 -0.03148,-3.36108 -0.05121,-4.40296 l 2.037863,0 c 2.045718,0 0.951565,-1.3994 0.471609,-2.02525 -1.042349,-1.35154 -2.089628,-2.69934 -3.132507,-4.0505 0,0 -0.365775,-0.46819 -0.783127,-1.01263 -0.417352,-0.54444 -1.171416,-0.51893 -1.568616,0 -0.3972,0.51893 -0.783127,1.01263 -0.783127,1.01263 -1.042879,1.35116 -2.090158,2.69896 -3.132507,4.0505 -0.479956,0.62585 -1.574109,2.02525 0.471609,2.02525 l 2.037863,0 c -0.01973,1.04188 -0.04174,3.84831 -0.05121,4.40296 0,0.92355 0.01039,0.96765 1.050336,0.96765 z"
         style="display:inline;fill:none;fill-opacity:1;fill-rule:evenodd;stroke:#000000;stroke-width:1px;stroke-linecap:butt;stroke-linejoin:miter;stroke-opacity:1" />
    </g>
    <g
       inkscape:groupmode="layer"
       id="layer2"
       inkscape:label="paper"
       sodipodi:insensitive="true">
      <g
         id="g4147">
        <path
           style="display:inline;fill:none;fill-rule:evenodd;stroke:#000000;stroke-width:1.08133519px;stroke-linecap:butt;stroke-linejoin:miter;stroke-opacity:1"
           d="m 31.612846,307.92044 -12.631818,0 0,25.17248 22.348601,0 0,-12.58622"
           id="path4547"
           inkscape:connector-curvature="0"
           transform="matrix(1.5740606,0,0,1.5740606,-29.02624,-479.58883)" />
        <rect
           style="display:inline;fill:#000000;fill-opacity:1;stroke:none;stroke-width:3;stroke-miterlimit:4;stroke-dasharray:none;stroke-opacity:1"
           id="rect4556"
           width="11.071428"
           height="2.5892856"
           x="21.696428"
           y="314.39792"
           rx="0"
           ry="0.012481685"
           transform="matrix(1.5740606,0,0,1.5740606,-29.02624,-479.58883)" />
        <rect
           ry="0"
           rx="0.00024385622"
           y="320.23718"
           x="21.696428"
           height="2.5892856"
           width="16.517857"
           id="rect4558"
           style="display:inline;fill:#000000;fill-opacity:1;stroke:none;stroke-width:3;stroke-miterlimit:4;stroke-dasharray:none;stroke-opacity:1"
           transform="matrix(1.5740606,0,0,1.5740606,-29.02624,-479.58883)" />
        <rect
           style="display:inline;fill:#000000;fill-opacity:1;stroke:none;stroke-width:3;stroke-miterlimit:4;stroke-dasharray:none;stroke-opacity:1"
           id="rect4560"
           width="16.517857"
           height="2.5892856"
           x="21.696428"
           y="326.07651"
           rx="0"
           ry="0"
           transform="matrix(1.5740606,0,0,1.5740606,-29.02624,-479.58883)" />
      </g>
    </g>
    <g
       style="display:inline"
       id="g4562"
       transform="matrix(1.5740606,0,0,1.5740606,-29.02624,-479.58883)" />
  </g>
</svg>
